# xmcd CD database file
#
# Track frame offsets:
#	150
#	23797
#	38710
#	54714
#	67636
#	85515
#	102187
#	119137
#	132921
#
# Disc length: 1912 seconds
#
# Revision: 8
# Processed by: cddbd v1.5.2PL0 Copyright (c) Steve Scherf et al.
# Submitted via: CDex 1.70beta2
#
DISCID=6e077609
DTITLE=JIMI HENDRIX - The Complete PPX Studio Recordings(Flashing)
DYEAR=2000
DGENRE=Blues Rock
TTITLE0=Love, Love
TTITLE1=Day Tripper
TTITLE2=Gloomy Monday
TTITLE3=Fool For Your Baby
TTITLE4=Don't Accuse Me
TTITLE5=Hornet's Nest
TTITLE6=Flashing
TTITLE7=Oddball
TTITLE8=Happy Birthday
EXTD=(p) and (c) SPV Records 088-29802\nOriginal Producer: Ed Chalpin, PPX Studios, New York YEAR: 2000
EXTT0=
EXTT1=
EXTT2=
EXTT3=
EXTT4=
EXTT5=
EXTT6=
EXTT7=
EXTT8=
PLAYORDER=
